<mxfile host="app.diagrams.net" modified="2020-06-30T08:34:39.640Z" agent="5.0 (Macintosh; Intel Mac OS X 10_15_5) AppleWebKit/605.1.15 (KHTML, like Gecko) Version/13.1.1 Safari/605.1.15" etag="8WBXB9P7ZgWi1Xczr6Ko" version="13.3.5" type="github">
  <diagram name="Page-1" id="c4acf3e9-155e-7222-9cf6-157b1a14988f">
    <mxGraphModel dx="1426" dy="842" grid="1" gridSize="10" guides="1" tooltips="1" connect="1" arrows="1" fold="1" page="1" pageScale="1" pageWidth="850" pageHeight="1100" background="#ffffff" math="0" shadow="0">
      <root>
        <mxCell id="0" />
        <mxCell id="1" parent="0" />
        <mxCell id="ClyugZo0dQLhauv9Fx6M-1" value="无缝皮肤框架" style="shape=umlFrame;whiteSpace=wrap;html=1;" vertex="1" parent="1">
          <mxGeometry x="15" y="20" width="820" height="400" as="geometry" />
        </mxCell>
        <mxCell id="ClyugZo0dQLhauv9Fx6M-2" value="&lt;p style=&quot;margin: 0px ; margin-top: 4px ; text-align: center&quot;&gt;&lt;i&gt;&amp;lt;&amp;lt;Interface&amp;gt;&amp;gt;&lt;/i&gt;&lt;br&gt;&lt;b&gt;ITheme&lt;/b&gt;&lt;/p&gt;&lt;hr size=&quot;1&quot;&gt;&lt;p style=&quot;margin: 0px ; margin-left: 4px&quot;&gt;&lt;br&gt;&lt;/p&gt;&lt;hr size=&quot;1&quot;&gt;&lt;p style=&quot;margin: 0px ; margin-left: 4px&quot;&gt;+ getThemeType(): int&lt;br&gt;+ isSeamlessTheme(): boolean&lt;/p&gt;&lt;p style=&quot;margin: 0px ; margin-left: 4px&quot;&gt;+&amp;nbsp;isOpenGLTheme(): boolean&lt;/p&gt;" style="verticalAlign=top;align=left;overflow=fill;fontSize=12;fontFamily=Helvetica;html=1;rounded=0;shadow=0;comic=0;labelBackgroundColor=none;strokeWidth=1" vertex="1" parent="1">
          <mxGeometry x="38" y="110" width="190" height="120" as="geometry" />
        </mxCell>
        <mxCell id="ClyugZo0dQLhauv9Fx6M-3" value="AbstractCandidateItemNewView" style="swimlane;html=1;fontStyle=0;childLayout=stackLayout;horizontal=1;startSize=26;fillColor=none;horizontalStack=0;resizeParent=1;resizeLast=0;collapsible=1;marginBottom=0;swimlaneFillColor=#ffffff;rounded=0;shadow=0;comic=0;labelBackgroundColor=none;strokeWidth=1;fontFamily=Verdana;fontSize=10;align=center;" vertex="1" parent="1">
          <mxGeometry x="265" y="180" width="190" height="55" as="geometry" />
        </mxCell>
        <mxCell id="ClyugZo0dQLhauv9Fx6M-4" value="+ onMeasureImageView: void" style="text;html=1;strokeColor=none;fillColor=none;align=left;verticalAlign=top;spacingLeft=4;spacingRight=4;whiteSpace=wrap;overflow=hidden;rotatable=0;points=[[0,0.5],[1,0.5]];portConstraint=eastwest;" vertex="1" parent="ClyugZo0dQLhauv9Fx6M-3">
          <mxGeometry y="26" width="190" height="26" as="geometry" />
        </mxCell>
        <mxCell id="ClyugZo0dQLhauv9Fx6M-9" value="CandidateMenuNewView" style="swimlane;html=1;fontStyle=0;childLayout=stackLayout;horizontal=1;startSize=26;fillColor=none;horizontalStack=0;resizeParent=1;resizeLast=0;collapsible=1;marginBottom=0;swimlaneFillColor=#ffffff;rounded=0;shadow=0;comic=0;labelBackgroundColor=none;strokeWidth=1;fontFamily=Verdana;fontSize=10;align=center;" vertex="1" parent="1">
          <mxGeometry x="335" y="312.5" width="230" height="55" as="geometry" />
        </mxCell>
        <mxCell id="ClyugZo0dQLhauv9Fx6M-10" value="+ onMeasureSeamlessMenuViews: void" style="text;html=1;strokeColor=none;fillColor=none;align=left;verticalAlign=top;spacingLeft=4;spacingRight=4;whiteSpace=wrap;overflow=hidden;rotatable=0;points=[[0,0.5],[1,0.5]];portConstraint=eastwest;" vertex="1" parent="ClyugZo0dQLhauv9Fx6M-9">
          <mxGeometry y="26" width="230" height="26" as="geometry" />
        </mxCell>
        <mxCell id="ClyugZo0dQLhauv9Fx6M-28" style="edgeStyle=orthogonalEdgeStyle;rounded=0;orthogonalLoop=1;jettySize=auto;html=1;entryX=1;entryY=0.5;entryDx=0;entryDy=0;" edge="1" parent="1" source="ClyugZo0dQLhauv9Fx6M-27" target="ClyugZo0dQLhauv9Fx6M-10">
          <mxGeometry relative="1" as="geometry" />
        </mxCell>
        <mxCell id="ClyugZo0dQLhauv9Fx6M-27" value="&lt;br&gt;控制栏菜单间距调整" style="shape=note;whiteSpace=wrap;html=1;size=14;verticalAlign=top;align=left;spacingTop=-6;" vertex="1" parent="1">
          <mxGeometry x="600" y="330" width="120" height="43" as="geometry" />
        </mxCell>
        <mxCell id="ClyugZo0dQLhauv9Fx6M-31" style="edgeStyle=orthogonalEdgeStyle;rounded=0;orthogonalLoop=1;jettySize=auto;html=1;entryX=0;entryY=0.5;entryDx=0;entryDy=0;" edge="1" parent="1" source="ClyugZo0dQLhauv9Fx6M-29" target="ClyugZo0dQLhauv9Fx6M-16">
          <mxGeometry relative="1" as="geometry">
            <Array as="points">
              <mxPoint x="245" y="62" />
              <mxPoint x="245" y="126" />
            </Array>
          </mxGeometry>
        </mxCell>
        <mxCell id="ClyugZo0dQLhauv9Fx6M-29" value="&lt;br&gt;控制栏菜单静图等比缩放" style="shape=note;whiteSpace=wrap;html=1;size=14;verticalAlign=top;align=left;spacingTop=-6;" vertex="1" parent="1">
          <mxGeometry x="310" y="40" width="120" height="42" as="geometry" />
        </mxCell>
        <mxCell id="ClyugZo0dQLhauv9Fx6M-32" style="edgeStyle=orthogonalEdgeStyle;rounded=0;orthogonalLoop=1;jettySize=auto;html=1;entryX=0;entryY=0.5;entryDx=0;entryDy=0;" edge="1" parent="1" source="ClyugZo0dQLhauv9Fx6M-30" target="ClyugZo0dQLhauv9Fx6M-4">
          <mxGeometry relative="1" as="geometry">
            <Array as="points">
              <mxPoint x="245" y="252" />
              <mxPoint x="245" y="219" />
            </Array>
          </mxGeometry>
        </mxCell>
        <mxCell id="ClyugZo0dQLhauv9Fx6M-30" value="&lt;br&gt;控制栏菜单动图等比缩放" style="shape=note;whiteSpace=wrap;html=1;size=14;verticalAlign=top;align=left;spacingTop=-6;" vertex="1" parent="1">
          <mxGeometry x="310" y="247" width="120" height="43" as="geometry" />
        </mxCell>
        <mxCell id="ClyugZo0dQLhauv9Fx6M-21" value="KeyboardBuilder" style="swimlane;html=1;fontStyle=0;childLayout=stackLayout;horizontal=1;startSize=26;fillColor=none;horizontalStack=0;resizeParent=1;resizeLast=0;collapsible=1;marginBottom=0;swimlaneFillColor=#ffffff;rounded=0;shadow=0;comic=0;labelBackgroundColor=none;strokeWidth=1;fontFamily=Verdana;fontSize=10;align=center;" vertex="1" parent="1">
          <mxGeometry x="505" y="230" width="320" height="60" as="geometry" />
        </mxCell>
        <mxCell id="ClyugZo0dQLhauv9Fx6M-22" value="+&amp;nbsp;&lt;span style=&quot;color: rgb(57 , 58 , 52) ; font-family: &amp;#34;consolas&amp;#34; , &amp;#34;courier&amp;#34; , monospace ; font-size: 14px ; background-color: rgb(255 , 255 , 255)&quot;&gt;parseKeyboardAttributes&lt;/span&gt;(parser): void" style="text;html=1;strokeColor=none;fillColor=none;align=left;verticalAlign=top;spacingLeft=4;spacingRight=4;whiteSpace=wrap;overflow=hidden;rotatable=0;points=[[0,0.5],[1,0.5]];portConstraint=eastwest;" vertex="1" parent="ClyugZo0dQLhauv9Fx6M-21">
          <mxGeometry y="26" width="320" height="34" as="geometry" />
        </mxCell>
        <mxCell id="ClyugZo0dQLhauv9Fx6M-17" value="KeyboardContainer" style="swimlane;html=1;fontStyle=0;childLayout=stackLayout;horizontal=1;startSize=26;fillColor=none;horizontalStack=0;resizeParent=1;resizeLast=0;collapsible=1;marginBottom=0;swimlaneFillColor=#ffffff;rounded=0;shadow=0;comic=0;labelBackgroundColor=none;strokeWidth=1;fontFamily=Verdana;fontSize=10;align=center;" vertex="1" parent="1">
          <mxGeometry x="505" y="100" width="320" height="70" as="geometry" />
        </mxCell>
        <mxCell id="ClyugZo0dQLhauv9Fx6M-18" value="+ onDraw(canvas): void&lt;br&gt;+ onDrawKeyBackground(key, canvas, drawable): void" style="text;html=1;strokeColor=none;fillColor=none;align=left;verticalAlign=top;spacingLeft=4;spacingRight=4;whiteSpace=wrap;overflow=hidden;rotatable=0;points=[[0,0.5],[1,0.5]];portConstraint=eastwest;" vertex="1" parent="ClyugZo0dQLhauv9Fx6M-17">
          <mxGeometry y="26" width="320" height="44" as="geometry" />
        </mxCell>
        <mxCell id="ClyugZo0dQLhauv9Fx6M-38" style="edgeStyle=orthogonalEdgeStyle;rounded=0;orthogonalLoop=1;jettySize=auto;html=1;" edge="1" parent="1" source="ClyugZo0dQLhauv9Fx6M-33" target="ClyugZo0dQLhauv9Fx6M-18">
          <mxGeometry relative="1" as="geometry">
            <Array as="points">
              <mxPoint x="490" y="65" />
              <mxPoint x="490" y="148" />
            </Array>
          </mxGeometry>
        </mxCell>
        <mxCell id="ClyugZo0dQLhauv9Fx6M-33" value="&lt;br&gt;键盘按键绘制区域大背景和单按键等比缩放" style="shape=note;whiteSpace=wrap;html=1;size=14;verticalAlign=top;align=left;spacingTop=-6;" vertex="1" parent="1">
          <mxGeometry x="565" y="40" width="160" height="50" as="geometry" />
        </mxCell>
        <mxCell id="ClyugZo0dQLhauv9Fx6M-35" style="edgeStyle=orthogonalEdgeStyle;rounded=0;orthogonalLoop=1;jettySize=auto;html=1;entryX=0;entryY=0.5;entryDx=0;entryDy=0;" edge="1" parent="1" source="ClyugZo0dQLhauv9Fx6M-34" target="ClyugZo0dQLhauv9Fx6M-22">
          <mxGeometry relative="1" as="geometry">
            <Array as="points">
              <mxPoint x="485" y="200" />
              <mxPoint x="485" y="273" />
            </Array>
          </mxGeometry>
        </mxCell>
        <mxCell id="ClyugZo0dQLhauv9Fx6M-34" value="&lt;br&gt;无缝皮肤框架无缝处理" style="shape=note;whiteSpace=wrap;html=1;size=14;verticalAlign=top;align=left;spacingTop=-6;" vertex="1" parent="1">
          <mxGeometry x="580" y="180" width="160" height="40" as="geometry" />
        </mxCell>
        <mxCell id="ClyugZo0dQLhauv9Fx6M-15" value="AbstractCandidateItem" style="swimlane;html=1;fontStyle=0;childLayout=stackLayout;horizontal=1;startSize=26;fillColor=none;horizontalStack=0;resizeParent=1;resizeLast=0;collapsible=1;marginBottom=0;swimlaneFillColor=#ffffff;rounded=0;shadow=0;comic=0;labelBackgroundColor=none;strokeWidth=1;fontFamily=Verdana;fontSize=10;align=center;" vertex="1" parent="1">
          <mxGeometry x="265" y="87" width="210" height="55" as="geometry" />
        </mxCell>
        <mxCell id="ClyugZo0dQLhauv9Fx6M-16" value="+ getSeamlessDrawable: Drawable" style="text;html=1;strokeColor=none;fillColor=none;align=left;verticalAlign=top;spacingLeft=4;spacingRight=4;whiteSpace=wrap;overflow=hidden;rotatable=0;points=[[0,0.5],[1,0.5]];portConstraint=eastwest;" vertex="1" parent="ClyugZo0dQLhauv9Fx6M-15">
          <mxGeometry y="26" width="210" height="26" as="geometry" />
        </mxCell>
        <mxCell id="ClyugZo0dQLhauv9Fx6M-40" style="edgeStyle=orthogonalEdgeStyle;rounded=0;orthogonalLoop=1;jettySize=auto;html=1;entryX=0;entryY=0.5;entryDx=0;entryDy=0;" edge="1" parent="1" source="ClyugZo0dQLhauv9Fx6M-39" target="ClyugZo0dQLhauv9Fx6M-26">
          <mxGeometry relative="1" as="geometry">
            <Array as="points">
              <mxPoint x="30" y="269" />
              <mxPoint x="30" y="362" />
            </Array>
          </mxGeometry>
        </mxCell>
        <mxCell id="ClyugZo0dQLhauv9Fx6M-39" value="&lt;br&gt;多状态图片集合记录策略" style="shape=note;whiteSpace=wrap;html=1;size=14;verticalAlign=top;align=left;spacingTop=-6;" vertex="1" parent="1">
          <mxGeometry x="90" y="247" width="120" height="43" as="geometry" />
        </mxCell>
        <mxCell id="ClyugZo0dQLhauv9Fx6M-23" value="FileStateListDrawable" style="swimlane;html=1;fontStyle=0;childLayout=stackLayout;horizontal=1;startSize=26;fillColor=none;horizontalStack=0;resizeParent=1;resizeLast=0;collapsible=1;marginBottom=0;swimlaneFillColor=#ffffff;rounded=0;shadow=0;comic=0;labelBackgroundColor=none;strokeWidth=1;fontFamily=Verdana;fontSize=10;align=center;" vertex="1" parent="1">
          <mxGeometry x="45" y="301.5" width="240" height="100" as="geometry" />
        </mxCell>
        <mxCell id="ClyugZo0dQLhauv9Fx6M-24" value="+&amp;nbsp;addState(states, drawables): void" style="text;html=1;strokeColor=none;fillColor=none;align=left;verticalAlign=top;spacingLeft=4;spacingRight=4;whiteSpace=wrap;overflow=hidden;rotatable=0;points=[[0,0.5],[1,0.5]];portConstraint=eastwest;" vertex="1" parent="ClyugZo0dQLhauv9Fx6M-23">
          <mxGeometry y="26" width="240" height="24" as="geometry" />
        </mxCell>
        <mxCell id="ClyugZo0dQLhauv9Fx6M-26" value="+&amp;nbsp;getStateList(): List" style="text;html=1;strokeColor=none;fillColor=none;align=left;verticalAlign=top;spacingLeft=4;spacingRight=4;whiteSpace=wrap;overflow=hidden;rotatable=0;points=[[0,0.5],[1,0.5]];portConstraint=eastwest;" vertex="1" parent="ClyugZo0dQLhauv9Fx6M-23">
          <mxGeometry y="50" width="240" height="20" as="geometry" />
        </mxCell>
        <mxCell id="ClyugZo0dQLhauv9Fx6M-25" value="+&amp;nbsp;getDrawabeList():List" style="text;html=1;strokeColor=none;fillColor=none;align=left;verticalAlign=top;spacingLeft=4;spacingRight=4;whiteSpace=wrap;overflow=hidden;rotatable=0;points=[[0,0.5],[1,0.5]];portConstraint=eastwest;" vertex="1" parent="ClyugZo0dQLhauv9Fx6M-23">
          <mxGeometry y="70" width="240" height="30" as="geometry" />
        </mxCell>
        <mxCell id="ClyugZo0dQLhauv9Fx6M-43" style="edgeStyle=orthogonalEdgeStyle;rounded=0;orthogonalLoop=1;jettySize=auto;html=1;entryX=0;entryY=0.75;entryDx=0;entryDy=0;" edge="1" parent="1" source="ClyugZo0dQLhauv9Fx6M-41" target="ClyugZo0dQLhauv9Fx6M-2">
          <mxGeometry relative="1" as="geometry">
            <mxPoint x="-17" y="210" as="targetPoint" />
            <Array as="points">
              <mxPoint x="23" y="90" />
              <mxPoint x="23" y="200" />
            </Array>
          </mxGeometry>
        </mxCell>
        <mxCell id="ClyugZo0dQLhauv9Fx6M-41" value="基于主题分策略切面加载皮肤框架" style="shape=note;whiteSpace=wrap;html=1;size=14;verticalAlign=top;align=left;spacingTop=-6;" vertex="1" parent="1">
          <mxGeometry x="73" y="58" width="140" height="42" as="geometry" />
        </mxCell>
      </root>
    </mxGraphModel>
  </diagram>
</mxfile>
